<!DOCTYPE svg PUBLIC "-//W3C//DTD SVG 20010904//EN" "http://www.w3.org/TR/2001/REC-SVG-20010904/DTD/svg10.dtd">
<svg version="1.0" xmlns="http://www.w3.org/2000/svg" width="240px" height="240px" viewBox="0 0 2400 2400" preserveAspectRatio="xMidYMid meet">
<g id="layer1" fill="#5ba2a9" stroke="none">
 <path d="M92 1548 l3 -853 755 0 755 0 3 853 2 852 -760 0 -760 0 2 -852z m1298 -98 l0 -540 -540 0 -540 0 0 540 0 540 540 0 540 0 0 -540z"/>
 <path d="M497 1803 c-4 -3 -7 -32 -7 -63 0 -76 22 -105 98 -125 99 -28 141 -46 147 -64 3 -10 -9 -48 -26 -84 -35 -77 -55 -176 -45 -228 8 -47 43 -98 85 -126 27 -18 48 -23 98 -23 70 0 104 13 144 57 67 72 64 195 -8 336 -13 27 -21 56 -18 67 6 19 47 37 147 65 79 21 100 50 96 129 l-3 61 -351 3 c-193 1 -353 -1 -357 -5z"/>
 <path d="M1790 1593 l0 -298 119 -325 c80 -219 115 -327 107 -331 -45 -26 -989 -360 -996 -353 -5 5 -26 56 -47 114 l-38 105 -118 3 c-103 2 -117 1 -117 -14 0 -9 39 -124 87 -255 79 -220 88 -239 110 -239 33 0 182 51 833 289 316 115 576 214 578 221 7 21 -491 1380 -505 1380 -10 0 -13 -62 -13 -297z"/>
 </g>

</svg>