<!DOCTYPE svg PUBLIC "-//W3C//DTD SVG 20010904//EN" "http://www.w3.org/TR/2001/REC-SVG-20010904/DTD/svg10.dtd">
<svg version="1.0" xmlns="http://www.w3.org/2000/svg" width="240px" height="240px" viewBox="0 0 2400 2400" preserveAspectRatio="xMidYMid meet">
<g id="layer1" fill="#5ba2a9" stroke="none">
 <path d="M431 2091 c-22 -41 -395 -869 -412 -916 -11 -27 -19 -59 -19 -70 1 -27 135 -173 148 -160 5 6 92 192 192 415 101 223 184 406 185 408 1 2 45 -25 96 -58 173 -113 343 -183 527 -216 59 -11 195 -18 422 -24 276 -7 351 -12 425 -29 90 -19 246 -71 297 -97 15 -8 32 -14 37 -14 12 0 34 40 55 101 28 80 25 86 -67 129 -180 85 -366 119 -642 120 -218 1 -439 15 -535 35 -221 46 -402 141 -596 314 -51 44 -94 81 -98 81 -3 0 -10 -8 -15 -19z"/>
 <path d="M587 1573 c-3 -5 -89 -192 -192 -418 l-187 -410 51 -47 c99 -91 229 -152 396 -188 84 -18 155 -22 450 -30 473 -12 623 -39 838 -153 48 -26 81 -37 86 -31 10 9 270 572 337 727 19 43 34 87 34 97 0 40 -194 143 -335 179 -135 34 -228 42 -565 51 -337 10 -415 17 -538 50 -112 31 -186 64 -277 125 -87 58 -91 60 -98 48z m477 -408 c65 -9 213 -16 418 -19 388 -6 548 -27 548 -71 0 -7 15 -42 33 -77 l34 -64 -61 -134 c-60 -130 -63 -133 -101 -145 -22 -6 -59 -21 -82 -33 l-42 -22 -73 20 c-143 39 -264 51 -613 60 -187 5 -349 11 -360 14 -11 3 -52 12 -92 21 -68 16 -71 18 -77 50 -4 19 -22 65 -41 103 l-35 69 49 109 c48 105 51 109 88 117 21 5 70 19 108 30 68 22 71 22 134 5 36 -10 110 -24 165 -33z"/>
 <path d="M1249 1111 c-126 -49 -207 -174 -184 -281 10 -45 58 -96 111 -116 155 -59 364 80 364 244 0 133 -146 210 -291 153z m124 -115 c41 -32 11 -77 -65 -96 -72 -18 -90 -58 -36 -80 19 -7 19 -9 5 -9 -31 -1 -57 19 -57 44 0 29 30 51 82 60 20 4 44 16 54 26 16 18 16 20 0 38 -10 11 -30 22 -45 24 -21 3 -19 4 9 5 19 1 43 -5 53 -12z"/>
 </g>

</svg>