<?xml version="1.0" encoding="iso-8859-1"?>
<!-- Generator: Adobe Illustrator 18.1.1, SVG Export Plug-In . SVG Version: 6.00 Build 0)  -->
<svg xmlns="http://www.w3.org/2000/svg" xmlns:xlink="http://www.w3.org/1999/xlink" version="1.1" id="Capa_1" x="0px" y="0px" viewBox="0 0 26.624 26.624" style="enable-background:new 0 0 26.624 26.624;" xml:space="preserve" width="512px" height="512px">
<g>
	<path d="M13.315,3.012C5.962,3.012,0,6.946,0,11.797c0,3.839,3.736,7.104,8.942,8.299   c0,0,1.51,0.732-0.973,3.274c-1.035,1.057,4.096-1.631,5.191-2.388c0.357-0.249,0.457-0.309,0.789-0.384   c0.292-0.044,0.531-0.051,0.656-0.059c6.744-0.429,12.019-4.178,12.019-8.742C26.625,6.946,20.665,3.012,13.315,3.012z    M15.152,19.503c-0.097,0.006-0.29,0.016-0.522,0.048c-0.271,0.061-0.351-0.111-0.637,0.086c-0.875,0.606-3.41,2.516-4.873,3.021   c1.989-2.034,1.021-3.513,1.021-3.513c-4.162-0.954-8.356-3.738-8.356-6.811C1.542,7.741,6.779,4.144,14.12,4.42   c5.879,0,10.647,4.209,10.647,8.089C24.768,16.159,20.548,19.159,15.152,19.503z" fill="#5ba2a9"/>
</g>
<g>
</g>
<g>
</g>
<g>
</g>
<g>
</g>
<g>
</g>
<g>
</g>
<g>
</g>
<g>
</g>
<g>
</g>
<g>
</g>
<g>
</g>
<g>
</g>
<g>
</g>
<g>
</g>
<g>
</g>
</svg>
